<?xml version="1.0" encoding="utf-8"?>
<!-- Created by UniConvertor 2.0rc5 (https://sk1project.net/) -->
<svg xmlns="http://www.w3.org/2000/svg" height="48.0px" width="48.0px" version="1.1" xmlns:xlink="http://www.w3.org/1999/xlink" id="973d662c-1a4e-11ed-b09d-0242ac150003">

<g>
	<path style="fill:#512da8;" d="M 33.9,12.1 L 14.2,12.1 17.6,7.0 C 18.0,6.4 18.6,6.1 19.3,6.1 L 28.9,6.1 C 29.6,6.1 30.2,6.4 30.6,7.0 L 33.9,12.1 Z" />
	<path style="fill:#8667c4;" d="M 14.0,11.0 L 8.0,11.0 8.0,9.2 C 8.0,8.5 8.5,8.0 9.2,8.0 L 12.8,8.0 C 13.5,8.0 14.0,8.5 14.0,9.2 L 14.0,11.0 Z" />
	<path style="fill:#5e35b1;" d="M 40.0,42.0 L 8.0,42.0 C 5.8,42.0 4.0,40.2 4.0,38.0 L 4.0,14.0 C 4.0,11.8 5.8,10.0 8.0,10.0 L 40.0,10.0 C 42.2,10.0 44.0,11.8 44.0,14.0 L 44.0,38.0 C 44.0,40.2 42.2,42.0 40.0,42.0 Z" />
	<path style="fill:#512da8;" d="M 36.0,26.0 C 36.0,32.6263 30.6263,38.0 24.0,38.0 17.3737,38.0 12.0,32.6263 12.0,26.0 12.0,19.3737 17.3737,14.0 24.0,14.0 30.6263,14.0 36.0,19.3737 36.0,26.0 Z" />
	<path style="fill:#b388ff;" d="M 33.0,26.0 C 33.0,30.9697 28.9697,35.0 24.0,35.0 19.0303,35.0 15.0,30.9697 15.0,26.0 15.0,21.0303 19.0303,17.0 24.0,17.0 28.9697,17.0 33.0,21.0303 33.0,26.0 Z" />
	<path style="fill:#c7a7ff;" d="M 29.0,23.0 C 27.8,21.6 26.0,20.8 24.2,20.8 22.4,20.8 20.6,21.6 19.4,23.0 18.9,23.5 19.0,24.3 19.5,24.8 20.0,25.3 20.8,25.2 21.3,24.7 22.8,23.0 25.6,23.0 27.1,24.7 27.4,25.0 27.7,25.1 28.1,25.1 28.4,25.1 28.7,25.0 29.0,24.8 29.4,24.4 29.5,23.5 29.0,23.0 Z" />
	<path style="fill:#8667c4;" d="M 13.0,13.5 C 13.0,14.3283 12.1044,15.0 11.0,15.0 9.8956,15.0 9.0,14.3283 9.0,13.5 9.0,12.6717 9.8956,12.0 11.0,12.0 12.1044,12.0 13.0,12.6717 13.0,13.5 Z" />
</g>
</svg>