<svg width="100" height="100" viewBox="0 0 100 100" fill="none" xmlns="http://www.w3.org/2000/svg">
<path d="M68.0749 2.89949C64.2089 -0.966497 57.4793 -0.966497 53.6133 2.89949L2.99235 53.5204C1.07625 55.439 0 58.0397 0 60.7512C0 63.4628 1.07625 66.0635 2.99235 67.9821L31.9208 96.9105C33.8538 98.8435 36.4209 99.9071 39.1516 99.9071C41.8823 99.9071 44.4494 98.8435 46.3824 96.9105L97.0033 46.2896C98.9363 44.3566 100 41.7895 100 39.0587C100 36.328 98.9363 33.7609 97.0033 31.8279L68.0749 2.89949V2.89949ZM39.1516 89.6797V94.7934V89.6797L10.2232 60.7512L60.8441 10.1303L89.7725 39.0587L39.1516 89.6797V89.6797Z" fill="#6B53CC"/>
</svg>
